<?xml version="1.0" encoding="UTF-8"?>
<svg width="91px" height="86px" viewBox="0 0 91 86" version="1.1" xmlns="http://www.w3.org/2000/svg" xmlns:xlink="http://www.w3.org/1999/xlink">
    <title>Quotation</title>
    <g id="Page-1" stroke="none" stroke-width="1" fill="none" fill-rule="evenodd">
        <g id="Desktop" transform="translate(-106.000000, -3165.000000)" fill="#B6B6B6" fill-rule="nonzero">
            <g id="Testimonial-Section" transform="translate(89.000000, 3051.000000)">
                <g id="Testimonial-1" transform="translate(0.000000, 100.000000)">
                    <g id="Quotation" transform="translate(17.422088, 14.881890)">
                        <path d="M38.8836574,3.71752508 L38.8836574,18.8595317 C38.8836574,20.9131257 37.2268869,22.5770567 35.1830883,22.5770567 C27.8911252,22.5770567 23.9246035,30.0919111 23.3748476,44.923799 L35.1830883,44.923799 C37.2268869,44.923799 38.8836574,46.5892898 38.8836574,48.6421039 L38.8836574,80.6137035 C38.8836574,82.6662577 37.2268869,84.3304487 35.1830883,84.3304487 L3.69979298,84.3304487 C1.6552182,84.3304487 0,82.664958 0,80.6137035 L0,48.6421039 C0,41.5319895 0.712483732,35.0072794 2.11701321,29.2470781 C3.5575032,23.3407858 5.76868637,18.1766467 8.6871791,13.8976326 C11.6902696,9.50008193 15.4467198,6.04926412 19.8530462,3.64525937 C24.2891241,1.22669749 29.4477753,0 35.1843818,0 C37.2268869,0 38.8836574,1.66393106 38.8836574,3.71752508 Z M86.6086843,22.5773167 C88.6514481,22.5773167 90.3095121,20.9118259 90.3095121,18.8597916 L90.3095121,3.71778503 C90.3095121,1.66419101 88.6517068,0.000259948611 86.6086843,0.000259948611 C80.8744062,0.000259948611 75.7149788,1.22721739 71.2804531,3.64551932 C66.8733506,6.04952407 63.1148307,9.50034188 60.1112228,13.8978925 C57.1937649,18.1769066 54.9825818,23.3413057 53.5418331,29.2488978 C52.1380797,35.0109187 51.425596,41.5356288 51.425596,48.6423639 L51.425596,80.6139634 C51.425596,82.6665177 53.0828839,84.3307087 55.1261651,84.3307087 L86.6084256,84.3307087 C88.6511894,84.3307087 90.3077011,82.6652179 90.3077011,80.6139634 L90.3077011,48.6421039 C90.3077011,46.5895497 88.6514481,44.923799 86.6084256,44.923799 L74.9686042,44.923799 C75.5100815,30.0921711 79.4186524,22.5773167 86.6086843,22.5773167 Z" id="Shape"></path>
                    </g>
                </g>
            </g>
        </g>
    </g>
</svg>