<?xml version="1.0" encoding="UTF-8"?>
<svg width="184px" height="158px" viewBox="0 0 184 158" version="1.1" xmlns="http://www.w3.org/2000/svg" xmlns:xlink="http://www.w3.org/1999/xlink">
    <title>Service Section Icon 1</title>
    <g id="Page-1" stroke="none" stroke-width="1" fill="none" fill-rule="evenodd">
        <g id="Desktop" transform="translate(-277.000000, -2437.000000)" fill-rule="nonzero">
            <g id="Services-Section" transform="translate(197.000000, 2255.000000)">
                <g id="Service-Section-Icon-1" transform="translate(80.000000, 182.000000)">
                    <g id="service-icon-blob-2" fill="#D3D3D3">
                        <path d="M143.113771,29.1582998 C160.867197,42.6433623 179.70979,56.3459258 183.304042,73.2022538 C187.007211,90.0585819 175.353121,110.177425 162.065281,125.728747 C148.886357,141.280069 133.964766,152.372621 118.062924,156.287639 C102.161082,160.202657 85.1700733,156.831391 67.5255639,151.937619 C49.9899713,146.935095 31.6919615,140.410065 18.6219546,126.598751 C5.55194762,112.896188 -2.39897328,91.79859 0.650695006,72.3322498 C3.7003633,52.9746601 17.7506208,35.1395775 34.7416298,21.5457646 C51.8415556,7.84320108 71.7733162,-1.61809275 90.1802427,0.230665813 C108.587169,2.18817488 125.251428,15.5644868 143.113771,29.1582998 Z" id="Path"></path>
                    </g>
                    <g id="Web-Dev-Icon" transform="translate(13.000000, 16.000000)">
                        <rect id="Rectangle" fill="#000000" x="23.0416667" y="16.4473684" width="29.625" height="6.57894737"></rect>
                        <rect id="Rectangle" fill="#000000" x="59.25" y="16.4473684" width="16.4583333" height="6.57894737"></rect>
                        <rect id="Rectangle" fill="#000000" x="23.0416667" y="65.7894737" width="29.625" height="6.57894737"></rect>
                        <rect id="Rectangle" fill="#000000" x="59.25" y="65.7894737" width="16.4583333" height="6.57894737"></rect>
                        <rect id="Rectangle" fill="#000000" x="23.0416667" y="49.3421053" width="19.75" height="6.57894737"></rect>
                        <rect id="Rectangle" fill="#000000" x="95.4583333" y="49.3421053" width="9.875" height="6.57894737"></rect>
                        <rect id="Rectangle" fill="#000000" x="49.375" y="49.3421053" width="39.5" height="6.57894737"></rect>
                        <rect id="Rectangle" fill="#000000" x="65.8333333" y="32.8947368" width="13.1666667" height="6.57894737"></rect>
                        <rect id="Rectangle" fill="#000000" x="23.0416667" y="32.8947368" width="36.2083333" height="6.57894737"></rect>
                        <rect id="Rectangle" fill="#000000" x="85.5833333" y="32.8947368" width="49.375" height="6.57894737"></rect>
                        <rect id="Rectangle" fill="#000000" x="23.0416667" y="82.2368421" width="49.375" height="6.57894737"></rect>
                        <polygon id="Path" fill="#0099FF" points="125.764811 61.8189762 121.110189 66.4704975 130.303711 75.6578947 121.110189 84.8452919 125.764811 89.4968133 139.612956 75.6578947"></polygon>
                        <polygon id="Path" fill="#0099FF" points="99.4314779 66.4704975 94.7768555 61.8189762 80.9287109 75.6578947 94.7768555 89.4968133 99.4314779 84.8452919 90.2379557 75.6578947"></polygon>
                        <polygon id="Rectangle" fill="#000000" transform="translate(110.268570, 75.690292) rotate(-68.216678) translate(-110.268570, -75.690292) " points="92.5523841 72.3948358 127.983245 72.4029747 127.984756 78.9857474 92.5538955 78.9776085"></polygon>
                        <path d="M151.416667,98.6842105 L151.416667,0 L6.58333333,0 L6.58333333,98.6842105 L0,98.6842105 L0,112.837942 L8.11344401,125 L149.886556,125 L158,112.837942 L158,98.6842105 L151.416667,98.6842105 Z M13.1666667,6.57894737 L144.833333,6.57894737 L144.833333,98.6842105 L13.1666667,98.6842105 L13.1666667,6.57894737 Z M151.416667,110.846269 L146.363444,118.421053 L11.636556,118.421053 L6.58333333,110.846269 L6.58333333,105.263158 L151.416667,105.263158 L151.416667,110.846269 Z" id="Shape" fill="#000000"></path>
                        <rect id="Rectangle" fill="#000000" x="88.875" y="108.552632" width="6.58333333" height="6.57894737"></rect>
                        <rect id="Rectangle" fill="#000000" x="75.7083333" y="108.552632" width="6.58333333" height="6.57894737"></rect>
                        <rect id="Rectangle" fill="#000000" x="62.5416667" y="108.552632" width="6.58333333" height="6.57894737"></rect>
                    </g>
                </g>
            </g>
        </g>
    </g>
</svg>