<?xml version="1.0" encoding="UTF-8"?>
<svg width="184px" height="158px" viewBox="0 0 184 158" version="1.1" xmlns="http://www.w3.org/2000/svg" xmlns:xlink="http://www.w3.org/1999/xlink">
    <title>Service Section Icon 2</title>
    <g id="Page-1" stroke="none" stroke-width="1" fill="none" fill-rule="evenodd">
        <g id="Desktop" transform="translate(-848.000000, -2437.000000)" fill-rule="nonzero">
            <g id="Services-Section" transform="translate(197.000000, 2255.000000)">
                <g id="Services-Section-Icons" transform="translate(80.000000, 182.000000)">
                    <g id="Service-Section-Icon-2" transform="translate(571.000000, 0.000000)">
                        <g id="service-icon-blob-2" fill="#D3D3D3">
                            <path d="M143.113771,29.1582998 C160.867197,42.6433623 179.70979,56.3459258 183.304042,73.2022538 C187.007211,90.0585819 175.353121,110.177425 162.065281,125.728747 C148.886357,141.280069 133.964766,152.372621 118.062924,156.287639 C102.161082,160.202657 85.1700733,156.831391 67.5255639,151.937619 C49.9899713,146.935095 31.6919615,140.410065 18.6219546,126.598751 C5.55194762,112.896188 -2.39897328,91.79859 0.650695006,72.3322498 C3.7003633,52.9746601 17.7506208,35.1395775 34.7416298,21.5457646 C51.8415556,7.84320108 71.7733162,-1.61809275 90.1802427,0.230665813 C108.587169,2.18817488 125.251428,15.5644868 143.113771,29.1582998 Z" id="Path"></path>
                        </g>
                        <g id="Search-Engine" transform="translate(26.000000, 17.000000)">
                            <path d="M0,0 L0,133 L133,133 L133,0 L0,0 Z M127.458333,127.458333 L5.54166667,127.458333 L5.54166667,27.7083333 L127.458333,27.7083333 L127.458333,127.458333 Z M127.458333,22.1666667 L5.54166667,22.1666667 L5.54166667,5.54166667 L127.458333,5.54166667 L127.458333,22.1666667 Z" id="Shape" fill="#000000"></path>
                            <rect id="Rectangle" fill="#000000" x="116" y="11" width="6" height="6"></rect>
                            <rect id="Rectangle" fill="#000000" x="105" y="11" width="6" height="6"></rect>
                            <rect id="Rectangle" fill="#000000" x="94" y="11" width="6" height="6"></rect>
                            <rect id="Rectangle" fill="#000000" x="13" y="11" width="72" height="6"></rect>
                            <polygon id="Path" fill="#000000" points="38.6543447 91 33.0475276 109.764234 29.656505 99.169881 24.343495 99.169881 20.9524724 109.764234 15.3456553 91 10 92.546738 18.1871499 119.949156 23.5164826 120 27 109.119313 30.4835174 120 35.8128501 119.949156 44 92.546738"></polygon>
                            <polygon id="Path" fill="#000000" points="77.6543447 91 72.0475276 109.764234 68.656505 99.169881 63.343495 99.169881 59.9524724 109.764234 54.3456553 91 49 92.546738 57.1871499 119.949156 62.5164826 120 66 109.119313 69.4835174 120 74.8128501 119.949156 83 92.546738"></polygon>
                            <polygon id="Path" fill="#000000" points="116.654345 91 111.047528 109.764234 107.656505 99.169881 102.343495 99.169881 98.9524724 109.764234 93.3456553 91 88 92.546738 96.1871499 119.949156 101.516483 120 105 109.119313 108.483517 120 113.81285 119.949156 122 92.546738"></polygon>
                            <path d="M11,33 L11,81 L122,81 L122,33 L11,33 Z M116.45,75.3529412 L16.55,75.3529412 L16.55,38.6470588 L116.45,38.6470588 L116.45,75.3529412 Z" id="Shape" fill="#000000"></path>
                            <path d="M104.056457,59.0927708 C106.847136,54.509236 106.296333,48.4457469 102.33838,44.4850627 C97.6908975,39.8383124 90.1334367,39.8383124 85.4900584,44.4850627 C83.2395111,46.7372862 82,49.7283922 82,52.9110604 C82,56.0937286 83.2395111,59.0848347 85.4886903,61.3343216 C87.7392375,63.586545 90.7299343,64.8262258 93.9135352,64.8262258 C96.1356257,64.8262258 98.2474462,64.1880502 100.095494,63.0564652 L108.037942,71 L112,67.0374002 L104.056457,59.0927708 Z M98.3722182,57.3717218 C95.990332,59.7580388 91.8353703,59.7580388 89.452116,57.3717218 C88.2604889,56.1785633 87.6037942,54.5968073 87.6037942,52.9110604 C87.6037942,51.2253136 88.2604889,49.640821 89.452116,48.4476625 C90.6820503,47.2189282 92.2977928,46.6031927 93.9135352,46.6031927 C95.5279095,46.6031927 97.143652,47.2189282 98.3749544,48.4476625 C100.833455,50.9106043 100.833455,54.9115165 98.3722182,57.3717218 Z" id="Shape" fill="#0099FF"></path>
                        </g>
                    </g>
                </g>
            </g>
        </g>
    </g>
</svg>