<?xml version="1.0" encoding="UTF-8"?>
<svg width="184px" height="158px" viewBox="0 0 184 158" version="1.1" xmlns="http://www.w3.org/2000/svg" xmlns:xlink="http://www.w3.org/1999/xlink">
    <title>Service Section Icon 3</title>
    <g id="Page-1" stroke="none" stroke-width="1" fill="none" fill-rule="evenodd">
        <g id="Desktop" transform="translate(-1419.000000, -2437.000000)" fill-rule="nonzero">
            <g id="Services-Section" transform="translate(197.000000, 2255.000000)">
                <g id="Services-Section-Icons" transform="translate(80.000000, 182.000000)">
                    <g id="Service-Section-Icon-3" transform="translate(1142.000000, 0.000000)">
                        <g id="service-icon-blob-2" fill="#D3D3D3">
                            <path d="M143.113771,29.1582998 C160.867197,42.6433623 179.70979,56.3459258 183.304042,73.2022538 C187.007211,90.0585819 175.353121,110.177425 162.065281,125.728747 C148.886357,141.280069 133.964766,152.372621 118.062924,156.287639 C102.161082,160.202657 85.1700733,156.831391 67.5255639,151.937619 C49.9899713,146.935095 31.6919615,140.410065 18.6219546,126.598751 C5.55194762,112.896188 -2.39897328,91.79859 0.650695006,72.3322498 C3.7003633,52.9746601 17.7506208,35.1395775 34.7416298,21.5457646 C51.8415556,7.84320108 71.7733162,-1.61809275 90.1802427,0.230665813 C108.587169,2.18817488 125.251428,15.5644868 143.113771,29.1582998 Z" id="Path"></path>
                        </g>
                        <g id="Marketing-Icon" transform="translate(26.000000, 13.000000)">
                            <polygon id="Path" fill="#0099FF" points="92.8396173 19 92.8396173 24.5069324 102.655037 24.5069324 79.8272369 47.4690203 63.4040518 30.9490297 38.7692741 55.7292845 30.5576815 47.4690203 17 61.1068857 20.8705684 65 30.5576815 55.2560556 38.7692741 63.5157821 63.4040518 38.736065 79.8272369 55.2560556 106.525605 28.4003156 106.525605 38.2733224 112 38.2733224 112 19"></polygon>
                            <path d="M131,5.45838886 L131,0 L122.8125,0 L8.1875,0 L0,0 L0,5.45838886 L8.1875,5.45838886 L8.1875,73.6882496 L0,73.6882496 L0,79.1466385 L8.1875,79.1466385 L35.1377543,79.1466385 L20.9151713,120.212486 C20.218221,122.284701 20.3714701,124.504837 21.3456014,126.462448 C22.3197327,128.418726 23.9974772,129.879271 26.0710042,130.574896 C26.9318644,130.862741 27.8073832,131 28.669576,131 C32.0916951,131 35.2886047,128.841165 36.4306437,125.442998 L52.4365133,79.1466385 L57.3125,79.1466385 L57.3125,114.626166 C57.3125,119.141064 60.9851481,122.813749 65.5,122.813749 C70.0148519,122.813749 73.6875,119.141064 73.6875,114.626166 L73.6875,79.1466385 L78.5637533,79.1466385 L94.5640259,125.420343 C95.7113953,128.837167 98.9096375,131 102.331757,131 C103.192617,131 104.068136,130.862741 104.928996,130.574896 C107.002523,129.879271 108.6816,128.418726 109.655731,126.462448 C110.629862,124.504837 110.783112,122.284701 110.078166,120.188499 L95.8635783,79.1466385 L122.8125,79.1466385 L131,79.1466385 L131,73.6882496 L122.8125,73.6882496 L122.8125,5.45838886 L131,5.45838886 Z M31.26415,123.68288 C30.7857463,125.107445 29.2359314,125.883027 27.8060506,125.399288 C27.1157633,125.167413 26.556071,124.681009 26.2322489,124.02936 C25.9084269,123.379044 25.8577881,122.640776 26.0803324,121.974469 L40.9135132,79.146905 L46.6604879,79.146905 L31.26415,123.68288 Z M68.2291667,114.626433 C68.2291667,116.130954 67.0045064,117.355627 65.5,117.355627 C63.9954936,117.355627 62.7708333,116.130954 62.7708333,114.626433 L62.7708333,79.146905 L68.2291667,79.146905 L68.2291667,114.626433 Z M104.913005,121.950482 C105.143545,122.640776 105.092906,123.379044 104.769084,124.02936 C104.445262,124.681009 103.885569,125.167413 103.193949,125.399288 C101.769399,125.883027 100.216919,125.107445 99.7305196,123.660226 L84.3400452,79.146905 L90.0878194,79.146905 L104.913005,121.950482 Z M117.354167,73.6882496 L73.6875,73.6882496 L57.3125,73.6882496 L13.6458333,73.6882496 L13.6458333,5.45838886 L117.354167,5.45838886 L117.354167,73.6882496 Z" id="Shape" fill="#000000"></path>
                        </g>
                    </g>
                </g>
            </g>
        </g>
    </g>
</svg>