<?xml version="1.0" encoding="UTF-8"?>
<svg width="44px" height="44px" viewBox="0 0 44 44" version="1.1" xmlns="http://www.w3.org/2000/svg" xmlns:xlink="http://www.w3.org/1999/xlink">
    <title>Instagram</title>
    <g id="Page-1" stroke="none" stroke-width="1" fill="none" fill-rule="evenodd">
        <g id="Desktop" transform="translate(-319.000000, -4370.000000)" fill="#FFFFFF" fill-rule="nonzero">
            <g id="Footer" transform="translate(0.000000, 4003.000000)">
                <g id="Left-Side-Main-Section" transform="translate(86.000000, 60.000000)">
                    <g id="Footer-Social-Subsection" transform="translate(0.000000, 307.000000)">
                        <g id="Social-Icons" transform="translate(159.000000, 0.000000)">
                            <g id="Instagram" transform="translate(74.000000, 0.000000)">
                                <path d="M12.8297526,0 C5.75491932,0 0,5.76024735 0,12.8369138 L0,31.1702472 C0,38.2450805 5.76024735,44 12.8369138,44 L31.1702472,44 C38.2450805,44 44,38.2397528 44,31.1630862 L44,12.8297526 C44,5.75491932 38.2397528,0 31.1630862,0 L12.8297526,0 Z M34.8333333,7.33333333 C35.8453333,7.33333333 36.6666667,8.15466667 36.6666667,9.16666667 C36.6666667,10.1786667 35.8453333,11 34.8333333,11 C33.8213333,11 33,10.1786667 33,9.16666667 C33,8.15466667 33.8213333,7.33333333 34.8333333,7.33333333 Z M22,11 C28.0665,11 33,15.9335 33,22 C33,28.0665 28.0665,33 22,33 C15.9335,33 11,28.0665 11,22 C11,15.9335 15.9335,11 22,11 Z M22,14.6666667 C17.9499118,14.6666667 14.6666667,17.9499118 14.6666667,22 C14.6666667,26.0500882 17.9499118,29.3333333 22,29.3333333 C26.0500882,29.3333333 29.3333333,26.0500882 29.3333333,22 C29.3333333,17.9499118 26.0500882,14.6666667 22,14.6666667 Z" id="Shape"></path>
                            </g>
                        </g>
                    </g>
                </g>
            </g>
        </g>
    </g>
</svg>