<?xml version="1.0" encoding="UTF-8"?>
<svg width="44px" height="44px" viewBox="0 0 44 44" version="1.1" xmlns="http://www.w3.org/2000/svg" xmlns:xlink="http://www.w3.org/1999/xlink">
    <title>Shape</title>
    <g id="Page-1" stroke="none" stroke-width="1" fill="none" fill-rule="evenodd">
        <g id="Desktop" transform="translate(-393.000000, -4370.000000)" fill="#FFFFFF" fill-rule="nonzero">
            <g id="Footer" transform="translate(0.000000, 4003.000000)">
                <g id="Left-Side-Main-Section" transform="translate(86.000000, 60.000000)">
                    <g id="Footer-Social-Subsection" transform="translate(0.000000, 307.000000)">
                        <g id="Social-Icons" transform="translate(159.000000, 0.000000)">
                            <g id="Twitter" transform="translate(148.000000, 0.000000)">
                                <path d="M22,0 C9.86843478,0 0,9.86843478 0,22 C0,34.1315652 9.86843478,44 22,44 C34.1315652,44 44,34.1315652 44,22 C44,9.86843478 34.1315652,0 22,0 Z M32.7484348,17.7186087 C32.758,17.9443478 32.7637391,18.173913 32.7637391,18.4044348 C32.7637391,25.4042609 27.4330435,33.4782609 17.6870435,33.4782609 C14.6950435,33.4782609 11.9086957,32.6011304 9.56521739,31.0974783 C9.9793913,31.1472174 10.3993043,31.1711304 10.8287826,31.1711304 C13.311913,31.1711304 15.5970435,30.3255652 17.4086957,28.9041739 C15.090087,28.862087 13.1349565,27.3268696 12.4586957,25.2244348 C12.7829565,25.2866087 13.1148696,25.320087 13.4573043,25.320087 C13.9403478,25.320087 14.4090435,25.256 14.851913,25.1335652 C12.43,24.6447826 10.604,22.506 10.604,19.9377391 C10.604,19.9147826 10.604,19.8927826 10.604,19.8707826 C11.3185217,20.2677391 12.1344348,20.5068696 13.003913,20.5346087 C11.5806087,19.5828696 10.6470435,17.9625217 10.6470435,16.124087 C10.6470435,15.1532174 10.9072174,14.2435652 11.3634783,13.4592174 C13.9776522,16.6645217 17.8821739,18.7736522 22.2850435,18.9955652 C22.1941739,18.6072174 22.1463478,18.2035652 22.1463478,17.7884348 C22.1463478,14.8624348 24.5185217,12.4902609 27.4454783,12.4902609 C28.9692174,12.4902609 30.3456522,13.1330435 31.3117391,14.1632174 C32.517913,13.926 33.6533043,13.4850435 34.6767826,12.8786087 C34.2817391,14.1144348 33.4409565,15.1532174 32.3457391,15.8093913 C33.4189565,15.6793043 34.4386087,15.3961739 35.3903478,14.9743478 C34.6806087,16.0370435 33.7824348,16.9715652 32.7484348,17.7186087 Z" id="Shape"></path>
                            </g>
                        </g>
                    </g>
                </g>
            </g>
        </g>
    </g>
</svg>